<?xml version="1.0" ?><svg height="60px" version="1.1" viewBox="0 0 60 60" width="60px" xmlns="http://www.w3.org/2000/svg" xmlns:sketch="http://www.bohemiancoding.com/sketch/ns" xmlns:xlink="http://www.w3.org/1999/xlink"><title/><defs/><g fill="none" fill-rule="evenodd" id="black" stroke="none" stroke-width="1"><g id="squarespace"><path d="M30,60 C46.5685433,60 60,46.5685433 60,30 C60,13.4314567 46.5685433,0 30,0 C13.4314567,0 0,13.4314567 0,30 C0,46.5685433 13.4314567,60 30,60 Z" fill="#000000" id="Squarespace"/><path d="M18.4251439,28.5783071 L28.8194613,18.1217368 C31.4290984,15.4978826 35.6583645,15.4978826 38.2664631,18.1217368 C38.8910837,18.7794311 38.8618527,19.8436651 38.219155,20.4902055 C37.5664573,21.1471306 36.5106793,21.1471306 35.856443,20.4902055 L35.6987494,20.307128 C34.3872,19.1886631 32.4191067,19.2521248 31.1810195,20.4982825 L20.5532386,31.1875458 C19.8532328,31.8363939 18.7963009,31.8363939 18.1443724,31.1806227 C17.4916746,30.5248515 17.4916746,29.4606175 18.1443724,28.8048462 C18.2320654,28.7179229 18.3259123,28.642538 18.4251439,28.5783071 L18.4251439,28.5783071 Z M41.7614922,28.8056155 C41.1087945,28.1498442 40.0526318,28.1498442 39.3999341,28.8056155 C39.3130103,28.8940773 39.2368558,28.9886929 39.1722399,29.0890779 L28.8194613,39.5029557 C27.5148351,40.8144982 25.3998174,40.8144982 24.0955758,39.5029557 L24.0482677,39.495648 C23.3967238,38.8398768 22.3397919,38.8398768 21.6867096,39.495648 C21.0351657,40.1502654 21.0351657,41.2156533 21.6867096,41.8702707 C21.7701718,41.9537324 21.8586341,42.0271942 21.9528656,42.0906559 C24.5759644,44.4995094 28.6440752,44.4298938 31.1806348,41.8783476 L41.7611076,31.1810073 C42.4134208,30.5256207 42.4134208,29.4613867 41.7614922,28.8056155 L41.7614922,28.8056155 Z M25.5098184,35.7048673 C25.4109714,35.7702521 25.3163552,35.8452523 25.229816,35.9325603 C24.5771183,36.5875623 24.5771183,37.6525655 25.229816,38.3071829 C25.8813599,38.9629541 26.9382918,38.9629541 27.6386822,38.3152598 L38.2664631,27.6236888 C39.5710894,26.3121463 41.686107,26.3121463 42.9891948,27.6236888 C44.2953595,28.9360005 44.2953595,31.0640839 42.9891948,32.3756263 L32.9118031,42.5598881 C34.2175832,43.8714306 36.331447,43.8714306 37.6356886,42.5598881 L45.3519068,34.7506336 C47.9596208,32.1267794 47.9596208,27.8725357 45.3519068,25.2475277 C42.7441927,22.625212 38.5141575,22.625212 35.904905,25.2475277 L25.5098184,35.7048673 L25.5098184,35.7048673 Z M24.0959604,34.7514028 L34.6764332,24.0544471 C35.3287463,23.3979067 35.3287463,22.3336727 34.6764332,21.6790553 C34.0248893,21.0225148 32.9668036,21.0225148 32.3148751,21.6790553 C32.227182,21.765594 32.1517968,21.8613635 32.0883347,21.9617485 L21.7344023,32.3756263 C20.429776,33.687938 18.3155276,33.687938 17.0116706,32.3756263 C15.7058905,31.0640839 15.7058905,28.9360005 17.0116706,27.6236888 L27.0890623,17.4398116 C25.7852053,16.1271153 23.6694184,16.1271153 22.3651768,17.4398116 L14.6489586,25.2479123 C12.0400907,27.8729203 12.0400907,32.127164 14.6489586,34.7510182 C17.2578265,37.3760262 21.488631,37.3760262 24.0959604,34.7514028 L24.0959604,34.7514028 Z" fill="#FFFFFF" id="Squarespace"/></g></g></svg>