<?xml version="1.0" ?><!DOCTYPE svg  PUBLIC '-//W3C//DTD SVG 1.1//EN'  'http://www.w3.org/Graphics/SVG/1.1/DTD/svg11.dtd'><svg height="512px" style="enable-background:new 0 0 512 512;" version="1.1" viewBox="0 0 512 512" width="512px" xml:space="preserve" xmlns="http://www.w3.org/2000/svg" xmlns:xlink="http://www.w3.org/1999/xlink"><g id="comp_x5F_380-wix"><g><path d="    M305.112,168.036c0,8.496,1.355,21.315-18.701,28.579c-6.208,2.25-10.399,6.299-10.399,6.299c0-20.214,3.076-27.53,11.345-31.86    C293.715,167.723,305.112,168.036,305.112,168.036z" style="fill:none;stroke:#000000;stroke-width:20;stroke-linecap:round;stroke-linejoin:round;stroke-miterlimit:10;"/><path d="    M208.382,204.907l-22.327,86.5l-18.569-70.792c-5.016-20.858-13.568-31.644-31.579-31.644c-17.847,0-26.512,10.55-31.579,31.644    L85.76,291.407l-22.327-86.5c-3.619-17.422-20.486-24.953-36.044-22.997l42.755,161.66c0,0,14.104,1.018,21.165-2.582    c9.272-4.727,13.68-8.372,19.294-30.365c5.001-19.607,18.98-77.208,20.292-81.309c3.104-9.742,7.23-9.005,10.041,0    c1.284,4.108,15.291,61.702,20.292,81.309c5.606,21.993,10.021,25.639,19.293,30.365c7.056,3.6,21.165,2.582,21.165,2.582    l42.755-161.66C228.517,179.909,211.955,187.733,208.382,204.907L208.382,204.907z" style="fill:none;stroke:#000000;stroke-width:20;stroke-linecap:round;stroke-linejoin:round;stroke-miterlimit:10;"/><path d="    M305.099,217.377c0,0-2.673,3.857-8.775,7.04c-3.92,2.044-7.683,3.43-11.719,5.238c-9.872,4.417-8.593,8.487-8.593,21.415v92.518    c0,0,10.791,1.272,17.846-2.087c9.082-4.32,11.17-8.486,11.255-27.244v-91.421l-0.014,0.006V217.377L305.099,217.377z" style="fill:none;stroke:#000000;stroke-width:20;stroke-linecap:round;stroke-linejoin:round;stroke-miterlimit:10;"/><path d="    M430.36,263.129l54.251-80.684c0,0-22.893-3.899-34.231,6.423c-8.671,7.889-15.917,19.268-35.327,47.253    c-0.307,0.475-4.075,6.873-8.522,0c-19.099-27.537-26.604-39.312-35.327-47.253c-11.34-10.322-34.233-6.423-34.233-6.423    l54.25,80.684l-54.1,80.434c0,0,23.844,3.014,35.177-7.309c7.492-6.82,11.463-13.281,34.238-46.111    c4.442-6.858,8.197-0.502,8.523,0c19.17,27.632,25.58,37.857,34.649,46.111c11.339,10.322,34.767,7.309,34.767,7.309    L430.36,263.129L430.36,263.129z" style="fill:none;stroke:#000000;stroke-width:20;stroke-linecap:round;stroke-linejoin:round;stroke-miterlimit:10;"/></g></g><g id="Layer_1"/></svg>